# xmcd CD database file
#
# Track frame offsets:
#	150
#	19767
#	35810
#	47062
#	70842
#	80817
#	98965
#	113670
#	126347
#	170047
#	188902
#	204270
#	223175
#	238687
#
# Disc length: 3422 seconds
#
# Revision: 0
# Processed by: cddbd v1.5.2PL0 Copyright (c) Steve Scherf et al.
# Submitted via: CDex 1.70beta3
#
DISCID=cf0d5c0e
DTITLE=Various Artist - ラヴァース・コンチェルト～最新ジャズ・オン・TVコマーシャル
DYEAR=1989
DGENRE=Jazz
TTITLE0=帰ってくれればうれしいわ：ヘレン・メリル
TTITLE1=テイク・ファイヴ：クインシー・ジョーンズ
TTITLE2=慕情：ジューン・バリ
TTITLE3=アイ・リメンバー・エイプリル：ジョン・ルイス
TTITLE4=オール・オブ・ミー：ダイナ・ワシントン
TTITLE5=バードランドの子守歌：サラ・ヴォーン
TTITLE6=ブルー・ムーン：クリフォード・ブラウン
TTITLE7=ラヴァース・コンチェルト：サラ・ヴォーン
TTITLE8=モーニン：アート・ブレイキーとジャズ・メッセンジャーズ
TTITLE9=ベイビー・ウォント・ユー・ウリーズ・カム・ホーム：金子晴美
TTITLE10=煙が目にしみる：ダイナ・ワシントン
TTITLE11=エニイ・プレイス・アイ・ハング・マイ・ハット・イズ・ホーム：ヘレン・メリル
TTITLE12=スターダスト：クリフォード・ブラウン
TTITLE13=サムワン・トゥ・ウォッチ・オーヴァー・ミー：サラ・ヴォーン
EXTD=YEAR: 1989
EXTT0=
EXTT1=
EXTT2=
EXTT3=
EXTT4=
EXTT5=
EXTT6=
EXTT7=
EXTT8=
EXTT9=
EXTT10=
EXTT11=
EXTT12=
EXTT13=
PLAYORDER=
